<?xml version="1.0" encoding="UTF-8" standalone="no"?>
<!-- Generator: Adobe Illustrator 13.0.0, SVG Export Plug-In . SVG Version: 6.00 Build 14948)  -->

<svg
   xmlns:dc="http://purl.org/dc/elements/1.1/"
   xmlns:cc="http://creativecommons.org/ns#"
   xmlns:rdf="http://www.w3.org/1999/02/22-rdf-syntax-ns#"
   xmlns:svg="http://www.w3.org/2000/svg"
   xmlns="http://www.w3.org/2000/svg"
   xmlns:sodipodi="http://sodipodi.sourceforge.net/DTD/sodipodi-0.dtd"
   xmlns:inkscape="http://www.inkscape.org/namespaces/inkscape"
   version="1.1"
   id="Type"
   x="0px"
   y="0px"
   width="792px"
   height="612px"
   viewBox="0 0 792 612"
   enable-background="new 0 0 792 612"
   xml:space="preserve"
   inkscape:version="0.48.0 r9654"
   sodipodi:docname="easyrpgtext2.svg"><metadata
   id="metadata29"><rdf:RDF><cc:Work
       rdf:about=""><dc:format>image/svg+xml</dc:format><dc:type
         rdf:resource="http://purl.org/dc/dcmitype/StillImage" /><dc:title></dc:title></cc:Work></rdf:RDF></metadata><defs
   id="defs27">
	
	

		
		
		
		
		
		
		
	</defs><sodipodi:namedview
   pagecolor="#ffffff"
   bordercolor="#666666"
   borderopacity="1"
   objecttolerance="10"
   gridtolerance="10"
   guidetolerance="10"
   inkscape:pageopacity="0"
   inkscape:pageshadow="2"
   inkscape:window-width="1440"
   inkscape:window-height="839"
   id="namedview25"
   showgrid="false"
   inkscape:zoom="1"
   inkscape:cx="353.66904"
   inkscape:cy="306"
   inkscape:window-x="0"
   inkscape:window-y="31"
   inkscape:window-maximized="1"
   inkscape:current-layer="Type" />
<g
   id="g3832"><path
     style="fill:#b3b3b3"
     inkscape:connector-curvature="0"
     id="path7"
     d="m 157.981,305.815 v 8.404 h -79 c 0.747,11.829 4.31,20.84 10.692,27.034 6.38,6.195 15.268,9.291 26.66,9.291 6.598,0 12.995,-0.809 19.19,-2.428 6.194,-1.618 12.341,-4.046 18.443,-7.284 v 16.249 c -6.163,2.614 -12.482,4.607 -18.957,5.976 -6.475,1.369 -13.042,2.055 -19.703,2.055 -16.685,0 -29.898,-4.855 -39.641,-14.567 -9.744,-9.712 -14.614,-22.847 -14.614,-39.407 0,-17.119 4.622,-30.706 13.867,-40.761 9.245,-10.053 21.711,-15.081 37.399,-15.081 14.068,0 25.197,4.529 33.384,13.587 8.186,9.058 12.28,21.37 12.28,36.932 z m -17.182,-5.043 c -0.125,-9.399 -2.754,-16.901 -7.891,-22.505 -5.136,-5.603 -11.938,-8.404 -20.404,-8.404 -9.587,0 -17.261,2.708 -23.018,8.125 -5.759,5.416 -9.074,13.042 -9.945,22.878 l 61.258,-0.094 z" /><path
     style="fill:#b3b3b3"
     inkscape:connector-curvature="0"
     id="path9"
     d="m 236.429,302.733 v 59.671 h -17.182 v -15.875 c -3.922,6.351 -8.81,11.035 -14.661,14.054 -5.853,3.02 -13.012,4.529 -21.478,4.529 -10.708,0 -19.222,-3.003 -25.54,-9.011 -6.319,-6.008 -9.478,-14.055 -9.478,-24.14 0,-11.766 3.937,-20.637 11.813,-26.613 7.875,-5.977 19.625,-8.965 35.251,-8.965 h 24.092 v -1.681 c 0,-7.905 -2.6,-14.021 -7.797,-18.35 -5.199,-4.326 -12.499,-6.49 -21.897,-6.49 -5.977,0 -11.798,0.717 -17.462,2.148 -5.666,1.433 -11.112,3.58 -16.342,6.443 V 262.58 c 6.287,-2.428 12.388,-4.249 18.303,-5.463 5.914,-1.214 11.673,-1.821 17.275,-1.821 15.128,0 26.427,3.923 33.897,11.767 7.47,7.843 11.206,19.735 11.206,35.67 z m -34.271,7.098 c -13.883,0 -23.501,1.587 -28.855,4.762 -5.355,3.176 -8.031,8.592 -8.031,16.249 0,6.102 2.008,10.941 6.023,14.521 4.016,3.58 9.479,5.369 16.389,5.369 9.525,0 17.166,-3.376 22.925,-10.132 5.758,-6.754 8.638,-15.734 8.638,-26.94 v -3.828 h -17.089 z" /><path
     style="fill:#b3b3b3"
     inkscape:connector-curvature="0"
     id="path11"
     d="m 309.808,260.899 v 16.248 c -4.856,-2.489 -9.898,-4.356 -15.128,-5.603 -5.229,-1.245 -10.646,-1.868 -16.248,-1.868 -8.53,0 -14.927,1.308 -19.19,3.922 -4.265,2.615 -6.396,6.537 -6.396,11.767 0,3.984 1.524,7.112 4.576,9.385 3.049,2.273 9.182,4.436 18.396,6.489 l 5.883,1.308 c 12.201,2.615 20.871,6.304 26.007,11.065 5.136,4.763 7.704,11.409 7.704,19.938 0,9.711 -3.845,17.4 -11.533,23.064 -7.689,5.666 -18.256,8.498 -31.703,8.498 -5.603,0 -11.439,-0.546 -17.509,-1.634 -6.07,-1.089 -12.466,-2.723 -19.19,-4.903 v -17.742 c 6.35,3.301 12.606,5.775 18.77,7.424 6.163,1.65 12.264,2.475 18.303,2.475 8.092,0 14.318,-1.385 18.676,-4.155 4.357,-2.77 6.537,-6.677 6.537,-11.72 0,-4.669 -1.573,-8.248 -4.716,-10.738 -3.144,-2.489 -10.039,-4.887 -20.684,-7.19 l -5.977,-1.4 c -10.646,-2.241 -18.335,-5.681 -23.065,-10.319 -4.732,-4.637 -7.097,-11.003 -7.097,-19.096 0,-9.836 3.486,-17.431 10.458,-22.785 6.972,-5.354 16.87,-8.031 29.695,-8.031 6.35,0 12.326,0.467 17.929,1.401 5.603,0.932 10.77,2.332 15.502,4.2 z" /><path
     style="fill:#b3b3b3"
     inkscape:connector-curvature="0"
     id="path13"
     d="m 357.983,372.116 c -4.855,12.45 -9.588,20.574 -14.194,24.372 -4.607,3.797 -10.771,5.696 -18.489,5.696 h -13.727 v -14.381 h 10.085 c 4.73,0 8.404,-1.12 11.019,-3.361 2.615,-2.241 5.51,-7.533 8.685,-15.875 l 3.082,-7.844 -42.302,-102.906 h 18.209 l 32.684,81.802 32.684,-81.802 h 18.208 l -45.944,114.299 z" /><path
     style="fill:#496e32;fill-opacity:1"
     inkscape:connector-curvature="0"
     id="path15"
     d="m 430.506,322.953 v 39.451 H 403.625 V 258.156 h 41.057 c 13.73,0 23.797,2.305 30.199,6.913 6.398,4.608 9.6,11.895 9.6,21.854 0,6.891 -1.664,12.546 -4.992,16.968 -3.328,4.423 -8.344,7.681 -15.047,9.775 3.676,0.838 6.971,2.735 9.881,5.69 2.908,2.957 5.852,7.437 8.832,13.441 l 14.594,29.605 H 469.12 L 456.412,336.5 c -2.561,-5.213 -5.156,-8.774 -7.785,-10.684 -2.631,-1.908 -6.135,-2.863 -10.51,-2.863 h -7.611 z m 11.312,-18.572 c 5.631,0 9.67,-1.048 12.115,-3.143 2.443,-2.095 3.664,-5.539 3.664,-10.334 0,-4.748 -1.221,-8.146 -3.664,-10.194 -2.445,-2.048 -6.484,-3.072 -12.115,-3.072 h -11.313 v 26.743 h 11.313 z" /><path
     style="fill:#496e32;fill-opacity:1"
     inkscape:connector-curvature="0"
     id="path17"
     d="m 499.438,258.156 h 44.617 c 13.266,0 23.449,2.945 30.549,8.833 7.098,5.89 10.646,14.279 10.646,25.172 0,10.939 -3.549,19.354 -10.646,25.241 -7.1,5.89 -17.283,8.833 -30.549,8.833 h -17.736 v 36.169 H 499.438 V 258.156 z m 26.88,19.482 v 29.116 h 14.873 c 5.213,0 9.24,-1.268 12.08,-3.805 2.838,-2.537 4.26,-6.133 4.26,-10.788 0,-4.654 -1.422,-8.239 -4.26,-10.753 -2.84,-2.514 -6.867,-3.771 -12.08,-3.771 h -14.873 z" /><path
     style="fill:#496e32;fill-opacity:1"
     inkscape:connector-curvature="0"
     id="path19"
     d="m 683.648,354.654 c -6.703,3.259 -13.664,5.702 -20.879,7.331 -7.215,1.629 -14.662,2.444 -22.344,2.444 -17.363,0 -31.117,-4.854 -41.266,-14.559 -10.148,-9.706 -15.221,-22.867 -15.221,-39.486 0,-16.803 5.166,-30.023 15.5,-39.66 10.334,-9.635 24.484,-14.453 42.453,-14.453 6.936,0 13.582,0.652 19.936,1.955 6.354,1.304 12.346,3.236 17.979,5.795 v 21.576 c -5.818,-3.305 -11.602,-5.771 -17.35,-7.401 -5.75,-1.629 -11.512,-2.444 -17.283,-2.444 -10.707,0 -18.957,2.992 -24.752,8.973 -5.795,5.982 -8.693,14.536 -8.693,25.66 0,11.033 2.793,19.551 8.379,25.557 5.586,6.004 13.521,9.007 23.811,9.007 2.793,0 5.387,-0.175 7.785,-0.523 2.396,-0.35 4.549,-0.896 6.459,-1.642 V 322.536 H 641.754 V 304.52 h 41.895 v 50.134 z" /><g
     id="g21"
     style="opacity:0.3;fill:#ffffff;fill-opacity:1">
		<path
   d="m 191.326,255.296 c -5.603,0 -11.362,0.607 -17.275,1.821 -5.915,1.214 -12.016,3.035 -18.303,5.463 v 15.875 c 5.229,-2.863 10.676,-5.011 16.342,-6.443 5.664,-1.432 11.486,-2.148 17.462,-2.148 9.399,0 16.699,2.164 21.897,6.49 5.197,4.328 7.797,10.444 7.797,18.35 v 1.681 h -24.092 c -15.626,0 -27.376,2.988 -35.251,8.965 -0.673,0.511 -1.307,1.05 -1.922,1.604 v -1.137 c 0,-15.563 -4.094,-27.874 -12.279,-36.933 -8.187,-9.058 -19.315,-13.587 -33.384,-13.587 -15.688,0 -28.154,5.028 -37.399,15.081 -9.245,10.055 -13.867,23.642 -13.867,40.761 0,6.486 0.758,12.438 2.252,17.874 4.784,-0.84 10.714,-1.854 17.619,-2.99 -1.02,-3.562 -1.67,-7.492 -1.942,-11.802 h 73.203 c -0.279,0.504 -0.543,1.019 -0.793,1.543 8.524,-1.083 17.378,-2.148 26.483,-3.169 5.625,-1.84 13.715,-2.763 24.285,-2.763 h 2.24 c 10.506,-1.008 21.221,-1.927 32.031,-2.724 v -4.374 c 0,-15.936 -3.735,-27.827 -11.206,-35.671 -7.472,-7.844 -18.77,-11.767 -33.898,-11.767 z m -111.785,45.57 c 0.871,-9.836 4.186,-17.462 9.945,-22.878 5.757,-5.417 13.431,-8.125 23.018,-8.125 8.466,0 15.268,2.802 20.404,8.404 5.136,5.604 7.765,13.105 7.891,22.505 l -61.258,0.094 z m 324.248,-42.71 0.137,-0.339 h -18.209 l -19.312,48.336 c 5.369,0.471 10.627,1.025 15.753,1.672 0.526,0.066 1.059,0.131 1.588,0.197 l 19.879,-49.458 v -0.409 h 0.164 z m -101.648,-0.339 0.262,0.636 c -2.589,-0.703 -5.288,-1.289 -8.096,-1.756 -5.603,-0.935 -11.579,-1.401 -17.929,-1.401 -12.825,0 -22.724,2.678 -29.695,8.031 -6.973,5.354 -10.458,12.949 -10.458,22.785 0,8.093 2.365,14.459 7.097,19.096 0.458,0.449 0.952,0.883 1.466,1.31 14.726,-0.99 29.573,-1.733 44.263,-2.138 -2.291,-0.659 -4.734,-1.272 -7.35,-1.833 l -5.883,-1.308 c -9.214,-2.054 -15.347,-4.216 -18.396,-6.489 -3.051,-2.272 -4.576,-5.4 -4.576,-9.385 0,-5.229 2.131,-9.151 6.396,-11.767 4.263,-2.614 10.66,-3.922 19.19,-3.922 5.603,0 11.019,0.623 16.248,1.868 5.229,1.246 10.272,3.113 15.128,5.603 v -0.679 l 11.349,27.608 c 6.02,0.063 11.973,0.198 17.841,0.412 l -18.647,-46.672 h -18.21 z m 172.74,7.252 c -6.402,-4.608 -16.469,-6.913 -30.199,-6.913 h -40.893 l -0.164,0.409 v 51.646 c 19.899,1.938 41.397,3.343 63.491,4.278 -0.868,-0.34 -1.76,-0.614 -2.675,-0.823 6.703,-2.095 11.719,-5.353 15.047,-9.775 3.328,-4.422 4.992,-10.077 4.992,-16.968 0,-9.959 -3.201,-17.245 -9.599,-21.854 z m -20.947,36.169 c -2.445,2.095 -6.484,3.143 -12.115,3.143 h -11.313 v -26.743 h 11.313 c 5.631,0 9.67,1.024 12.115,3.072 2.443,2.049 3.664,5.446 3.664,10.194 0,4.795 -1.221,8.24 -3.664,10.334 z m 120.67,-34.249 c -7.1,-5.888 -17.283,-8.833 -30.549,-8.833 h -44.617 v 57.368 c 26.091,0.577 52.332,0.563 77.152,0.056 5.767,-5.757 8.66,-13.558 8.66,-23.419 0,-10.892 -3.549,-19.282 -10.646,-25.172 z m -21.333,35.96 c -2.84,2.537 -6.867,3.805 -12.08,3.805 h -14.873 v -29.116 h 14.873 c 5.213,0 9.24,1.257 12.08,3.771 2.838,2.514 4.26,6.099 4.26,10.753 0,4.654 -1.422,8.25 -4.26,10.787 z m 88.483,1.571 v 8.396 c 15.918,-1.032 30.121,-2.297 41.895,-3.75 v -4.646 h -41.895 z m 3.42,-28.768 c 5.771,0 11.533,0.815 17.283,2.444 5.748,1.63 11.531,4.097 17.35,7.401 v -21.576 c -5.633,-2.559 -11.625,-4.491 -17.979,-5.795 -6.354,-1.303 -13,-1.955 -19.936,-1.955 -17.969,0 -32.119,4.818 -42.453,14.453 -10.334,9.637 -15.5,22.857 -15.5,39.66 0,1.715 0.067,3.384 0.176,5.025 9.521,-0.235 18.801,-0.544 27.752,-0.918 -0.092,-1.328 -0.139,-2.696 -0.139,-4.107 0,-11.124 2.898,-19.678 8.693,-25.66 5.796,-5.98 14.046,-8.972 24.753,-8.972 z"
   id="path23"
   inkscape:connector-curvature="0"
   style="fill:#ffffff;fill-opacity:1" />
	</g></g>
</svg>