<?xml version="1.0" encoding="UTF-8" standalone="no"?>
<svg
   xmlns:dc="http://purl.org/dc/elements/1.1/"
   xmlns:cc="http://creativecommons.org/ns#"
   xmlns:rdf="http://www.w3.org/1999/02/22-rdf-syntax-ns#"
   xmlns:svg="http://www.w3.org/2000/svg"
   xmlns="http://www.w3.org/2000/svg"
   id="svg6"
   version="1.1"
   viewBox="0 0 22 22">
  <metadata
     id="metadata10">
    <rdf:RDF>
      <cc:Work
         rdf:about="">
        <dc:format>image/svg+xml</dc:format>
        <dc:type
           rdf:resource="http://purl.org/dc/dcmitype/StillImage" />
        <dc:title></dc:title>
      </cc:Work>
    </rdf:RDF>
  </metadata>
  <defs
     id="defs3051">
    <style
       id="current-color-scheme"
       type="text/css">
      .ColorScheme-Text {
        color:#eff0f1;
      }
      </style>
  </defs>
  <path
     id="path4"
     class="ColorScheme-Text"
     d="M 4 3 L 1 7 L 18 7 L 21 3 L 4 3 z M 4 9 L 1 13 L 18 13 L 21 9 L 4 9 z M 4 15 L 1 19 L 18 19 L 21 15 L 4 15 z "
     style="fill:currentColor;fill-opacity:1;stroke:none" />
  <path
     id="path4520"
     d="m 1.0254241,12.988894 c 0,-0.03407 0.6715363,-0.956955 1.4923029,-2.050847 L 4.0100299,8.9491525 h 8.4822731 c 4.66525,0 8.482273,0.021441 8.482273,0.047646 0,0.026205 -0.676366,0.9490869 -1.503037,2.0508475 l -1.503038,2.003201 H 9.4969629 c -4.6593464,0 -8.4715388,-0.02788 -8.4715388,-0.06195 z"
     style="opacity:0.98000004;fill:#3daee9;fill-opacity:1;stroke:#ff0000;stroke-width:0.09322034;stroke-opacity:0.00842698" />
</svg>
